<svg width="68" height="68" viewBox="0 0 68 68" fill="none" xmlns="http://www.w3.org/2000/svg">
<path d="M44.7433 39.9404L34.8996 25.7217C34.7989 25.5762 34.6645 25.4572 34.5078 25.3751C34.3511 25.2929 34.1769 25.25 34 25.25C33.823 25.25 33.6488 25.2929 33.4921 25.3751C33.3354 25.4572 33.201 25.5762 33.1003 25.7217L23.2566 39.9404C23.16 40.08 23.0972 40.2401 23.0732 40.4081C23.0492 40.5761 23.0647 40.7474 23.1185 40.9084L25.9199 49.3125H25.25C24.9599 49.3125 24.6817 49.4277 24.4766 49.6329C24.2714 49.838 24.1562 50.1162 24.1562 50.4063V53.6875C24.1562 53.9776 24.2714 54.2558 24.4766 54.4609C24.6817 54.666 24.9599 54.7813 25.25 54.7813H26.3437V66.8125C26.3437 67.1026 26.4589 67.3808 26.6641 67.5859C26.8692 67.791 27.1474 67.9063 27.4375 67.9063H40.5625C40.8525 67.9063 41.1307 67.791 41.3359 67.5859C41.541 67.3808 41.6562 67.1026 41.6562 66.8125V54.7813H42.75C43.04 54.7813 43.3182 54.666 43.5234 54.4609C43.7285 54.2558 43.8437 53.9776 43.8437 53.6875V50.4063C43.8437 50.1162 43.7285 49.838 43.5234 49.6329C43.3182 49.4277 43.04 49.3125 42.75 49.3125H42.08L44.8814 40.9084C44.9352 40.7474 44.9507 40.5761 44.9267 40.4081C44.9027 40.2401 44.8399 40.08 44.7433 39.9404ZM34 38.375C34.2163 38.375 34.4277 38.4392 34.6076 38.5593C34.7875 38.6795 34.9277 38.8503 35.0104 39.0502C35.0932 39.2501 35.1149 39.47 35.0727 39.6821C35.0305 39.8943 34.9263 40.0892 34.7734 40.2422C34.6204 40.3951 34.4255 40.4993 34.2133 40.5415C34.0012 40.5837 33.7812 40.562 33.5814 40.4793C33.3815 40.3965 33.2107 40.2563 33.0905 40.0764C32.9703 39.8966 32.9062 39.6851 32.9062 39.4688C32.9066 39.1788 33.022 38.9008 33.227 38.6958C33.432 38.4908 33.71 38.3754 34 38.375ZM39.4687 65.7188H28.5312V54.7813H39.4687V65.7188ZM41.6562 52.5938H26.3437V51.5H41.6562V52.5938ZM39.7736 49.3125H28.2263L25.3662 40.7361L32.9062 29.8451V36.1875C32.9068 36.2489 32.9123 36.3102 32.9226 36.3707C32.1901 36.6253 31.5714 37.1312 31.1764 37.7986C30.7813 38.4659 30.6354 39.2517 30.7645 40.0164C30.8936 40.7811 31.2894 41.4753 31.8817 41.976C32.474 42.4766 33.2244 42.7513 34 42.7513C34.7755 42.7513 35.5259 42.4766 36.1182 41.976C36.7105 41.4753 37.1063 40.7811 37.2354 40.0164C37.3645 39.2517 37.2186 38.4659 36.8236 37.7986C36.4285 37.1312 35.8098 36.6253 35.0773 36.3707C35.0876 36.3102 35.0931 36.2489 35.0937 36.1875V29.8451L42.6337 40.7361L39.7736 49.3125Z" fill="#333333"/>
<path d="M66.8125 12.125H62.4375C62.1474 12.125 61.8692 12.2402 61.6641 12.4454C61.459 12.6505 61.3438 12.9287 61.3438 13.2188V14.3221C61.2984 14.3161 61.2528 14.3129 61.207 14.3125H37.2812V13.2188C37.2812 12.9287 37.166 12.6505 36.9609 12.4454C36.7558 12.2402 36.4776 12.125 36.1875 12.125H35.0938V6.65625H36.1875C36.4776 6.65625 36.7558 6.54102 36.9609 6.3359C37.166 6.13078 37.2812 5.85258 37.2812 5.5625V1.1875C37.2812 0.897419 37.166 0.61922 36.9609 0.414102C36.7558 0.208984 36.4776 0.09375 36.1875 0.09375H31.8125C31.5224 0.09375 31.2442 0.208984 31.0391 0.414102C30.834 0.61922 30.7188 0.897419 30.7188 1.1875V5.5625C30.7188 5.85258 30.834 6.13078 31.0391 6.3359C31.2442 6.54102 31.5224 6.65625 31.8125 6.65625H32.9062V12.125H31.8125C31.5224 12.125 31.2442 12.2402 31.0391 12.4454C30.834 12.6505 30.7188 12.9287 30.7188 13.2188V14.3125H6.65625V13.2188C6.65625 12.9287 6.54102 12.6505 6.3359 12.4454C6.13078 12.2402 5.85258 12.125 5.5625 12.125H1.1875C0.897419 12.125 0.61922 12.2402 0.414102 12.4454C0.208984 12.6505 0.09375 12.9287 0.09375 13.2188V17.5938C0.09375 17.8838 0.208984 18.162 0.414102 18.3671C0.61922 18.5723 0.897419 18.6875 1.1875 18.6875H5.5625C5.85258 18.6875 6.13078 18.5723 6.3359 18.3671C6.54102 18.162 6.65625 17.8838 6.65625 17.5938V16.5H24.7387C23.2951 17.455 22.0048 18.6236 20.9119 19.9658C18.1078 23.366 16.5 27.6836 16.5 31.8125H15.4062C15.1162 31.8125 14.838 31.9277 14.6329 32.1329C14.4277 32.338 14.3125 32.6162 14.3125 32.9062V37.2812C14.3125 37.5713 14.4277 37.8495 14.6329 38.0546C14.838 38.2598 15.1162 38.375 15.4062 38.375H19.7812C20.0713 38.375 20.3495 38.2598 20.5546 38.0546C20.7598 37.8495 20.875 37.5713 20.875 37.2812V32.9062C20.875 32.6162 20.7598 32.338 20.5546 32.1329C20.3495 31.9277 20.0713 31.8125 19.7812 31.8125H18.6875C18.6875 23.7023 24.9273 17.3053 30.7188 16.5711V17.5938C30.7188 17.8838 30.834 18.162 31.0391 18.3671C31.2442 18.5723 31.5224 18.6875 31.8125 18.6875H36.1875C36.4776 18.6875 36.7558 18.5723 36.9609 18.3671C37.166 18.162 37.2812 17.8838 37.2812 17.5938V16.567C40.2426 16.9184 43.085 18.693 45.3791 21.6529C47.6117 24.5309 49.0295 28.2578 49.2742 31.8125H48.2188C47.9287 31.8125 47.6505 31.9277 47.4454 32.1329C47.2402 32.338 47.125 32.6162 47.125 32.9062V37.2812C47.125 37.5713 47.2402 37.8495 47.4454 38.0546C47.6505 38.2598 47.9287 38.375 48.2188 38.375H52.5938C52.8838 38.375 53.162 38.2598 53.3671 38.0546C53.5723 37.8495 53.6875 37.5713 53.6875 37.2812V32.9062C53.6875 32.6162 53.5723 32.338 53.3671 32.1329C53.162 31.9277 52.8838 31.8125 52.5938 31.8125H51.4658C51.2266 27.7506 49.6693 23.6135 47.1086 20.3117C45.9824 18.8333 44.6252 17.5462 43.0891 16.5H61.207C61.2528 16.4996 61.2984 16.4964 61.3438 16.4904V17.5938C61.3438 17.8838 61.459 18.162 61.6641 18.3671C61.8692 18.5723 62.1474 18.6875 62.4375 18.6875H66.8125C67.1026 18.6875 67.3808 18.5723 67.5859 18.3671C67.791 18.162 67.9062 17.8838 67.9062 17.5938V13.2188C67.9062 12.9287 67.791 12.6505 67.5859 12.4454C67.3808 12.2402 67.1026 12.125 66.8125 12.125ZM4.46875 16.5H2.28125V14.3125H4.46875V16.5ZM18.6875 36.1875H16.5V34H18.6875V36.1875ZM32.9062 2.28125H35.0938V4.46875H32.9062V2.28125ZM35.0938 16.5H32.9062V14.3125H35.0938V16.5ZM49.3125 34H51.5V36.1875H49.3125V34ZM65.7188 16.5H63.5312V14.3125H65.7188V16.5Z" fill="#333333"/>
</svg>
