<svg width="36" height="36" viewBox="0 0 36 36" fill="none" xmlns="http://www.w3.org/2000/svg">
<g clip-path="url(#clip0_63_128)">
<path fill-rule="evenodd" clip-rule="evenodd" d="M32.0436 22.1365C32.0436 22.1365 34.9542 25.0111 35.6742 26.3413C35.6882 26.3605 35.6992 26.3817 35.7066 26.4043C36 26.8957 36.072 27.2809 35.928 27.5653C35.685 28.0351 34.8624 28.2709 34.5834 28.2907H29.439C29.0808 28.2907 28.3356 28.1971 27.4284 27.5707C26.7354 27.0865 26.046 26.2891 25.3782 25.5097C24.381 24.3523 23.5188 23.3479 22.6458 23.3479C22.5356 23.3476 22.4261 23.3659 22.3218 23.4019C21.6612 23.6107 20.8224 24.5521 20.8224 27.0595C20.8224 27.8443 20.2032 28.2907 19.7694 28.2907H17.4132C16.6104 28.2907 12.4308 28.0099 8.72464 24.1021C4.18324 19.3177 0.10444 9.72007 0.06484 9.63547C-0.18896 9.01447 0.34384 8.67607 0.91984 8.67607H6.11464C6.81124 8.67607 7.03804 9.09727 7.19644 9.47527C7.38004 9.90907 8.06044 11.6443 9.17644 13.5937C10.9836 16.7653 12.0942 18.0559 12.9816 18.0559C13.1484 18.0564 13.3123 18.0129 13.4568 17.9299C14.616 17.2927 14.4 13.1527 14.346 12.2995C14.346 12.1339 14.3442 10.4509 13.7502 9.63727C13.3254 9.05407 12.6018 8.82727 12.1644 8.74447C12.2814 8.57527 12.5298 8.31607 12.8484 8.16307C13.6422 7.76707 15.0768 7.70947 16.5006 7.70947H17.2908C18.8352 7.73107 19.2348 7.83007 19.7964 7.97227C20.9268 8.24227 20.9484 8.97487 20.8494 11.4697C20.8206 12.1825 20.79 12.9853 20.79 13.9303C20.79 14.1319 20.781 14.3569 20.781 14.5855C20.7468 15.8653 20.7018 17.3071 21.6054 17.8993C21.7226 17.9723 21.858 18.0109 21.996 18.0109C22.3092 18.0109 23.247 18.0109 25.7904 13.6459C26.9064 11.7181 27.7704 9.44467 27.8298 9.27367C27.8802 9.17827 28.0314 8.91007 28.215 8.80207C28.3456 8.73258 28.4919 8.69787 28.6398 8.70127H34.7508C35.4168 8.70127 35.8686 8.80207 35.9568 9.05407C36.1044 9.46267 35.928 10.7101 33.138 14.4829C32.6682 15.1111 32.256 15.6547 31.8942 16.1299C29.3652 19.4491 29.3652 19.6165 32.0436 22.1365Z" fill="white"/>
</g>
<defs>
<clipPath id="clip0_63_128">
<rect width="36" height="36" fill="white"/>
</clipPath>
</defs>
</svg>
