<svg width="35" height="25" viewBox="0 0 35 25" fill="none" xmlns="http://www.w3.org/2000/svg">
<path d="M33.8435 4.28553C33.6493 3.56408 33.269 2.90628 32.7407 2.37798C32.2124 1.84968 31.5546 1.46941 30.8332 1.27521C28.1763 0.556153 17.5001 0.556152 17.5001 0.556152C17.5001 0.556152 6.82381 0.556153 4.16694 1.27521C3.44549 1.46941 2.78769 1.84968 2.25939 2.37798C1.73109 2.90628 1.35082 3.56408 1.15662 4.28553C0.660527 6.99513 0.419785 9.74531 0.437563 12.4999C0.419785 15.2545 0.660527 18.0047 1.15662 20.7143C1.35082 21.4357 1.73109 22.0935 2.25939 22.6218C2.78769 23.1501 3.44549 23.5304 4.16694 23.7246C6.82381 24.4436 17.5001 24.4436 17.5001 24.4436C17.5001 24.4436 28.1763 24.4436 30.8332 23.7246C31.5546 23.5304 32.2124 23.1501 32.7407 22.6218C33.269 22.0935 33.6493 21.4357 33.8435 20.7143C34.3396 18.0047 34.5803 15.2545 34.5626 12.4999C34.5803 9.74531 34.3396 6.99513 33.8435 4.28553ZM14.0876 17.6187V7.38115L22.9479 12.4999L14.0876 17.6187Z" fill="white"/>
</svg>
